<?xml version="1.0" encoding="utf-8"?>
<!-- Generator: Adobe Illustrator 24.2.1, SVG Export Plug-In . SVG Version: 6.00 Build 0)  -->
<svg version="1.1" id="Layer_1" xmlns="http://www.w3.org/2000/svg" xmlns:xlink="http://www.w3.org/1999/xlink" x="0px" y="0px"
	 viewBox="0 0 299 120" style="enable-background:new 0 0 299 120;" xml:space="preserve">
<style type="text/css">
	.st0{fill:#FFD200;}
	.st1{fill:#FFFFFF;}
</style>
<g>
	<path class="st0" d="M266.76,45.99h-2.86h-7.36h-2.13h-1.47l-4.17,17.73l-4.17-17.73h-14.3v36.2h10.38l-0.65-19.94l4.66,19.94h8.09
		l4.74-20.02l-0.65,20.02h10.38V65.11l-0.98,1.96c-0.08-0.33-0.16-0.74-0.16-1.31c-0.08-0.98,0.08-1.8,0.41-2.45l0.74-1.23v-2.45
		l-2.45,1.47c-0.82-0.57-1.47-0.82-2.13-0.74l-4.5,2.62l1.64-1.88c1.31-1.39,2.29-2.37,3.02-2.86c1.23-0.9,2.45-1.72,3.68-2.37
		h-1.72l-0.49-0.82c-0.41,0.57-0.74,0.82-1.06,0.82c-0.41,0-0.9-0.08-1.55-0.25c-0.74-0.16-0.98-0.33-0.82-0.41
		c1.72-1.06,2.94-1.63,3.84-1.72l2.53-0.16v-0.65l-0.9,0.16l-0.57-0.82l-0.57,0.41l-5.23,0.41l2.94-2.37
		c1.96-1.47,3.35-2.29,4.33-2.53v-1.96H266.76z"/>
	<path class="st1" d="M291.36,50.24c-0.82-0.33-2.13-0.57-3.92-0.57l-2.37-0.08l5.07-1.31c-0.57-0.33-1.31-0.65-2.21-0.9l-3.19-0.41
		l2.62-0.9l-0.33-0.9l1.39,0.41l2.13-0.98c0.65-0.16,1.72-0.49,3.27-1.14c-3.68-0.25-6.29-0.41-7.68-0.25
		c-0.98,0-2.04,0.25-3.19,0.65l-1.55,0.65v-2.37l-0.65-0.9h1.23l2.21-1.72c0.82-0.49,1.88-0.9,2.94-1.31
		c-1.72,0.08-3.11,0.16-4.33,0.33c0,0,0,0,0,0.08c-1.72,0.24-2.86,0.74-3.43,1.39c-0.41,0.41-0.82,0.98-1.14,1.72
		c0-2.62-0.08-4.41-0.24-5.39l-1.31-5.15l4.09,4.74c0.33,0.57,0.49,0.25,0.65-0.98l1.39,3.51c0.16-0.82,0.16-1.96,0.08-3.43
		c-0.33-2.94-1.23-5.15-2.86-6.38c-1.14-0.98-2.7-1.96-4.74-2.86l-2.7-1.23l2.45-0.33c1.72-0.16,2.78-0.08,3.19,0.33
		c0.57,0.65,0.57,0-0.16-1.88l2.29,1.55l1.14-0.41c0.9-0.16,1.8-0.16,2.7,0l4.49,1.14c-0.57-2.53-2.7-4.58-6.21-5.97
		c-1.23-0.49-2.94-0.82-4.98-0.9h-2.86l5.64-1.96c-1.14-0.16-2.29-0.49-3.59-0.82c-0.82-0.25-1.96-0.33-3.43-0.25l-1.96,0.08
		l3.84-1.31l-0.57-1.39l2.13,0.65l3.1-1.39c1.06-0.25,2.62-0.98,4.74-2.12c-4.9-0.41-8.66-0.49-11.28,0l-6.95,1.88V8.07l-0.49-0.65
		l2.04-0.08l0.65-0.9c0.65-0.74,1.39-1.23,2.21-1.63c1.23-0.65,2.53-1.31,3.92-1.8c-4.66,0.08-8.5,1.06-11.44,2.86
		c-1.63,1.06-2.78,2.62-3.27,4.82c-0.33,1.14-0.41,2.12-0.33,3.02c-1.72-1.63-3.43-2.7-5.23-3.27c-1.72-0.65-3.76-0.57-6.13,0.16
		c-2.04,0.74-3.02,1.14-2.94,1.14c0.57,0,1.06,0,1.31,0.08c0.9,0,1.55,0.16,2.04,0.41c1.23,0.65,1.96,1.06,2.37,1.39l1.31-1.14
		l0.25,1.8l2.21,3.27c-3.76-0.98-6.7-1.31-8.91-0.98c-1.31,0.16-3.35,1.55-6.13,4.33l-3.6,3.92l6.54-1.06l0.49-1.06l1.55,1.47
		l2.78-0.25l0.24,0.82l-4.9,0.49c-0.9,0.08-1.96,0.57-3.35,1.47l-1.88,1.23l3.27,0.74c0.25,0,0.57-0.16,0.82-0.41
		c0.16-0.16,0.25-0.41,0.41-0.74l0.25,1.14l4.58,0.41c-3.35,1.31-5.88,2.62-7.6,3.92c-0.33,0.16-0.65,0.49-0.98,0.74
		c-0.82,0.82-1.63,1.8-2.53,3.02l-1.31,2.37l4.09-2.7l0.25-2.13l1.72,0.9l2.78-0.65l0.25,0.82c0.24,0.41,0.41,0.57,0.65,0.33
		c0.74-0.9,1.88-1.72,3.51-2.53c1.31-0.08,1.88,0.08,1.72,0.41c-0.41,0.74-1.06,1.63-1.8,2.7c-0.49,0.65-0.82,1.31-1.06,2.04
		c-0.57,1.63-0.82,3.43-0.65,5.39l1.64-2.45c0.49-0.41,0.98-0.74,1.63-1.06l0.65,0.74l1.96-2.04c0.41-0.33,0.98-0.49,1.55-0.49
		l0.08,5.31l0.9-0.49l0.08,2.78h2.13c0.49-1.06,0.98-2.62,1.47-4.66l0.57-2.78l1.14-0.08c0.82,0,1.39,0.16,1.72,0.49
		c0.25,0.16-0.08,1.72-0.82,4.58l0.82-0.74c0.57-0.41,0.9-0.49,1.06-0.33c0.25,0.33,0.25,1.14,0,2.45l1.39,0.49v0.57h2.86v-0.25
		l1.72-0.33c0-0.74,0-1.47,0-2.12c0.33,0.08,0.82,0.25,1.31,0.57c0.49,0.25,0.9,0.74,1.14,1.55l0.65-0.65v1.14l1.47,1.96
		c-2.21-0.16-4-0.16-5.48,0c-0.16,0-0.24,0.08-0.33,0.08c-0.98,0.25-2.37,1.06-4.33,2.53l-2.94,2.37l5.23-0.41l0.57-0.41l0.57,0.82
		l0.9-0.16l1.31-0.25l0.16,0.82l-1.47,0.08l-2.53,0.16c-0.9,0.08-2.12,0.65-3.84,1.72c-0.16,0.08,0.08,0.25,0.82,0.41
		c0.65,0.16,1.14,0.25,1.55,0.25c0.33,0,0.65-0.25,1.06-0.82l0.49,0.82h1.72c-1.23,0.65-2.45,1.47-3.68,2.37
		c-0.74,0.49-1.72,1.47-3.02,2.86l-1.64,1.88l4.5-2.62c0.65-0.08,1.31,0.16,2.13,0.74l2.45-1.47l0.16-0.16
		c0.33-0.08,0.82-0.08,1.47-0.08l-1.63,2.7l-0.74,1.23c-0.33,0.65-0.49,1.47-0.41,2.45c0,0.57,0.08,0.98,0.16,1.31l0.98-1.96
		l0.16-0.41l0.49,1.23l1.63-2.45c0.33-0.41,0.65-0.74,1.14-0.98c0.49,0.98,0.74,1.63,0.65,1.96c-0.08,0.33-0.33,0.98-0.65,1.8
		l0.41,0.57l0.49,1.39c0,0.65-0.24,1.39-0.74,2.37c1.39-1.47,2.13-2.45,2.21-2.86c-0.08-0.33,0.08-0.49,0.49-0.57
		c0.08-0.08,0.25-0.16,0.41-0.16l0.65-3.68l1.8,0.74c0.41,0.41,0.08,1.64-0.74,3.84l1.55-0.9l-0.16,1.8l0.9,0.08l-0.49,16.18
		c-0.9,12.42-2.78,22.88-5.64,31.46h3.43c2.94-7.93,4.49-23.78,4.58-47.65l1.06,0.57l0.16-2.62l0.9-0.24
		c-0.41-0.82-0.65-1.55-0.98-2.45c-0.08-0.25-0.16-0.49-0.24-0.65l-0.65-3.19l0.49-0.08l0.98,3.76l0.65-0.25l0.24,4.41l1.06-0.82
		l0.08,2.37c0.73-0.57,1.06-1.55,1.06-2.7l-0.16-3.84l1.88,2.21c0.24,0.74,0.65,1.8,1.31,3.27c0.49-4.17,0.57-6.7,0.24-7.52
		l-0.65-2.37c1.47,1.63,2.21,2.7,2.21,3.11c0,0.24,0,0.24,0.08,0c0-0.25,0.08-0.74,0.16-1.55l0.9,3.27c0.41-2.53,0.08-4.49-0.9-5.72
		c-0.57-0.82-1.55-1.72-2.78-2.62l-1.72-1.06l1.55-0.25c1.23-0.08,1.88-0.08,2.21,0.25c0.41,0.41,0.41,0-0.16-1.31l1.55,1.23
		l0.73-0.25c0.65-0.08,1.31,0,1.88,0.25c0.98,0.33,1.88,0.82,2.78,1.39C294.05,52.53,292.58,50.81,291.36,50.24z M269.62,42.96
		h-1.23c-0.08-1.31-0.25-2.53-0.57-3.6l-1.55-5.39l0.82-1.06l1.63,5.64l1.23-0.16l0.24,4.58C270.03,42.96,269.86,42.96,269.62,42.96
		z M271.09,43.05l0.41-0.49l0.16,0.57C271.5,43.13,271.25,43.05,271.09,43.05z M276.81,45.91c-1.23-0.65-2.45-1.39-3.51-2.12
		c0.16-0.98,0.16-1.88,0.16-2.78l-0.49-4.09l0.9,0.33c0.65,0.33,1.06,0.82,1.31,1.47c0.49,1.23,1.23,2.86,2.29,4.98
		C277.14,44.52,276.97,45.25,276.81,45.91z"/>
	<path class="st0" d="M216.58,45.91h-11.2l-9.64,36.29h10.71l0.74-4.58h7.76l0.82,4.58h10.79L216.58,45.91z M210.94,58h0.33
		c0.16,1.31,0.33,2.7,0.57,4l1.31,6.95h-4.09l1.39-6.95C210.61,61.27,210.77,59.88,210.94,58z"/>
	<path class="st1" d="M251.31,87.83c-2.62,0.24-6.05,0.9-10.22,1.96c-0.08,0-0.16,0-0.25,0.08c-0.57,0.08-0.49-0.16,0.08-0.82
		c0.74-0.98,0.98-1.55,0.65-1.88c-0.9-1.23-3.11-1.55-6.62-0.98c-3.19,0.41-5.97,1.23-8.34,2.53c-1.96,0.98-3.43,1.39-4.33,1.31
		c-0.49-0.08-0.41-0.98,0.33-2.62c0.49-1.63,0.24-2.29-1.06-1.96c-0.24,0-1.39,0.33-3.43,0.98c-1.39,0.49-2.53,0.65-3.43,0.41
		c-0.57-0.08-0.65-0.49-0.16-0.98c0.49-0.82,0.82-1.39,0.82-1.55c-0.08-0.65-0.82-0.82-2.12-0.41c-1.31,0.41-2.21,0.74-2.86,1.06
		c-0.41,0.24-1.96,1.23-4.41,2.94c-0.49,0.33-1.23,0.41-2.21,0.41c-1.23-0.08-2.37,0.16-3.35,0.65c-0.74,0.33-1.23,0.9-1.39,1.72
		c-0.16,0.74,0,1.31,0.57,1.63c0.9,0.41,3.92-0.74,9.15-3.51c0.08,0.08-0.16,0.57-0.57,1.72c-0.41,1.06-0.25,1.72,0.25,1.88
		c1.06,0.33,2.45-0.08,4.33-1.14c1.8-1.14,3.02-1.55,3.84-1.31c0.24,0.08,0.16,0.49-0.33,1.31c-0.49,0.82-0.49,1.31-0.08,1.39
		c2.21,0.73,4.74,0.65,7.6-0.25c1.63-0.57,4.17-1.47,7.52-2.7c1.96-0.65,3.19-0.74,3.68-0.16c0.08,0-0.08,0.65-0.49,1.8
		c-0.33,0.9,0,1.39,0.98,1.31c1.47,0,6.37-0.57,14.55-1.72c5.88-0.82,10.87-0.9,15.04-0.16c0.82,0.08,1.31-0.08,1.39-0.49
		c0-0.41-0.16-0.73-0.65-1.06c-0.73-0.49-1.72-0.82-3.02-1.06C259.24,87.42,255.4,87.34,251.31,87.83z"/>
	<path class="st1" d="M166.15,46.64h-18.8v70.69h18.8V84.81h0.08l11.69,32.53h20.19l-16.75-36.61l15.04-34.08h-19.86l-10.3,30.08
		h-0.08V46.64z"/>
	<path class="st1" d="M116.87,46.89l-5.39,23.86c-0.16,0.9-0.65,3.19-1.47,6.86c-0.57,2.78-0.98,4.82-1.06,6.29l-7.52-37.1
		l-18.96,0.08l-7.68,70.45h17.57l2.37-29.09c0.33-2.37,0.57-5.31,0.65-8.83l8.17,37.92l11.2-0.16l4-19.7
		c2.12-7.44,3.51-13.4,4.25-18.06c0-0.08,0-0.16,0-0.24l0.16,0.24l2.62,37.68h17.98l-8.58-70.2H116.87z"/>
	<path class="st1" d="M65.63,102.22h7.27V87.26h-7.27V45.74H37.52L2.7,102.3l40.05-0.08v14.38h22.88V102.22z M44.14,65.85
		c-0.16,1.72-0.33,3.43-0.41,5.23c-0.16,1.14-0.16,2.13-0.16,2.94v13.24H30.57c1.63-2.13,3.35-4.49,5.07-7.03
		c1.72-2.62,3.35-5.39,5.07-8.34L44.14,65.85z"/>
	<path class="st0" d="M254.17,98.62c-1.55,1.72-2.29,4.33-2.29,7.85c0,2.45,0.33,4.41,1.06,5.97c0.74,1.47,1.72,2.53,2.86,3.19
		c1.23,0.65,2.78,0.98,4.82,0.98c1.63,0,3.02-0.24,4.09-0.82c1.14-0.49,1.96-1.31,2.62-2.45c0.57-1.06,0.9-2.29,0.9-3.6
		c0-1.88-0.65-3.43-1.88-4.74c-1.23-1.31-2.7-1.96-4.41-1.96c-0.98,0-1.72,0.16-2.45,0.49c-0.65,0.33-1.39,0.82-2.04,1.55
		c0.16-2.21,0.49-3.6,0.82-4.25c0.49-0.9,1.23-1.31,2.12-1.31c0.49,0,0.9,0.16,1.23,0.49c0.33,0.33,0.57,0.82,0.74,1.63l5.48-0.65
		c-0.33-1.14-0.82-2.04-1.39-2.7c-0.65-0.74-1.39-1.23-2.29-1.64c-0.9-0.33-2.12-0.49-3.76-0.49
		C257.77,96.17,255.64,96.99,254.17,98.62z M257.69,109.73c0-0.98,0.24-1.8,0.74-2.37c0.57-0.57,1.14-0.9,1.96-0.9
		c0.74,0,1.31,0.33,1.88,0.9c0.49,0.57,0.74,1.47,0.74,2.62c0,1.06-0.25,1.88-0.74,2.45c-0.49,0.49-1.06,0.82-1.8,0.82
		c-0.82,0-1.47-0.33-1.96-0.98C257.93,111.7,257.69,110.88,257.69,109.73z"/>
	<path class="st0" d="M234.56,98.86c-0.49,0.9-0.9,2.12-1.14,3.6l5.56,0.41c0.08-1.06,0.41-1.88,0.9-2.29
		c0.41-0.41,0.98-0.65,1.64-0.65c0.73,0,1.23,0.25,1.72,0.65c0.49,0.41,0.74,0.9,0.74,1.55c0,0.49-0.25,1.14-0.74,1.72
		c-0.49,0.65-1.47,1.64-3.11,2.78c-2.7,1.96-4.41,3.68-5.39,5.07c-0.98,1.47-1.47,2.94-1.72,4.58h16.51v-4.49h-8.58
		c0.49-0.49,0.98-0.9,1.31-1.14c0.41-0.33,1.14-0.9,2.21-1.63c1.88-1.31,3.19-2.53,3.92-3.6c0.65-1.14,1.06-2.29,1.06-3.51
		c0-1.14-0.33-2.12-0.98-3.02c-0.57-0.98-1.39-1.64-2.53-2.04c-1.06-0.49-2.62-0.65-4.49-0.65c-1.88,0-3.35,0.24-4.41,0.65
		C236.03,97.31,235.21,97.97,234.56,98.86z"/>
	<path class="st0" d="M226.47,96.66c-0.9-0.33-1.96-0.49-3.35-0.49c-2.7,0-4.74,0.74-6.13,2.21c-1.31,1.55-2.04,4.17-2.04,7.93
		c0,1.55,0.16,2.94,0.41,4.17c0.25,1.31,0.65,2.37,1.14,3.02c0.65,1.06,1.47,1.8,2.53,2.37c0.98,0.49,2.37,0.74,4,0.74
		c2.94,0,5.07-0.82,6.21-2.45c1.23-1.72,1.88-4.33,1.88-7.84c0-1.64-0.16-3.19-0.49-4.66c-0.25-0.82-0.49-1.47-0.82-2.04
		c-0.25-0.57-0.74-1.14-1.23-1.72C228.02,97.39,227.36,96.99,226.47,96.66z M223.03,99.76c0.82,0,1.55,0.49,1.96,1.39
		c0.49,0.9,0.65,2.7,0.65,5.31c0,1.8-0.08,3.11-0.24,3.92c-0.24,0.9-0.49,1.55-0.9,1.88c-0.41,0.41-0.98,0.57-1.47,0.57
		c-0.9,0-1.55-0.41-1.96-1.31c-0.41-0.98-0.65-2.7-0.65-5.23c0-2.45,0.16-4.17,0.57-5.15C221.4,100.25,222.05,99.76,223.03,99.76z"
		/>
	<path class="st0" d="M200.8,104.75c0.82-0.41,1.72-0.9,2.62-1.63v13.16h5.56v-20.1h-4.58c-0.57,1.23-1.39,2.21-2.45,3.11
		c-0.98,0.9-2.45,1.55-4.33,2.21v4.49C198.84,105.57,199.91,105.16,200.8,104.75z"/>
</g>
</svg>
