<?xml version="1.0" encoding="utf-8"?>
<!-- Generator: Adobe Illustrator 24.2.1, SVG Export Plug-In . SVG Version: 6.00 Build 0)  -->
<svg version="1.1" id="Layer_1" xmlns="http://www.w3.org/2000/svg" xmlns:xlink="http://www.w3.org/1999/xlink" x="0px" y="0px"
	 viewBox="0 0 255.12 99.21" style="enable-background:new 0 0 255.12 99.21;" xml:space="preserve">
<style type="text/css">
	.st0{fill:#FFD300;}
	.st1{fill:#273577;}
</style>
<path class="st0" d="M213.92,39.02h-2.14h-5.49h-1.59h-1.1l-3.11,13.24l-3.11-13.24H186.7v27.04h7.75l-0.49-14.89l3.48,14.89h6.04
	l3.54-14.95l-0.49,14.95h7.75V53.3l-0.73,1.47c-0.06-0.24-0.12-0.55-0.12-0.98c-0.06-0.73,0.06-1.34,0.31-1.83l0.55-0.92v-1.83
	l-1.83,1.1c-0.61-0.43-1.1-0.61-1.59-0.55l-3.36,1.95l1.22-1.4c0.98-1.04,1.71-1.77,2.26-2.14c0.92-0.67,1.83-1.28,2.75-1.77h-1.28
	l-0.37-0.61c-0.31,0.43-0.55,0.61-0.79,0.61c-0.31,0-0.67-0.06-1.16-0.18c-0.55-0.12-0.73-0.24-0.61-0.31
	c1.28-0.79,2.2-1.22,2.87-1.28l1.89-0.12v-0.49l-0.67,0.12l-0.43-0.61l-0.43,0.31l-3.91,0.31l2.2-1.77c1.47-1.1,2.5-1.71,3.24-1.89
	v-1.46H213.92z"/>
<path class="st1" d="M232.3,42.19c-0.61-0.24-1.59-0.43-2.93-0.43l-1.77-0.06l3.78-0.98c-0.43-0.24-0.98-0.49-1.65-0.67l-2.38-0.31
	l1.95-0.67l-0.24-0.67l1.04,0.31l1.59-0.73c0.49-0.12,1.28-0.37,2.44-0.85c-2.75-0.18-4.7-0.31-5.74-0.18
	c-0.73,0-1.53,0.18-2.38,0.49l-1.16,0.49v-1.77l-0.49-0.67h0.92l1.65-1.28c0.61-0.37,1.4-0.67,2.2-0.98
	c-1.28,0.06-2.32,0.12-3.23,0.24c0,0,0,0,0,0.06c-1.28,0.18-2.14,0.55-2.56,1.04c-0.31,0.31-0.61,0.73-0.85,1.28
	c0-1.95-0.06-3.3-0.18-4.03l-0.98-3.85l3.05,3.54c0.24,0.43,0.37,0.18,0.49-0.73l1.04,2.62c0.12-0.61,0.12-1.46,0.06-2.56
	c-0.24-2.2-0.92-3.85-2.14-4.76c-0.85-0.73-2.01-1.46-3.54-2.14l-2.01-0.92l1.83-0.24c1.28-0.12,2.07-0.06,2.38,0.24
	c0.43,0.49,0.43,0-0.12-1.4l1.71,1.16l0.85-0.31c0.67-0.12,1.34-0.12,2.01,0l3.36,0.85c-0.43-1.89-2.01-3.42-4.64-4.46
	c-0.92-0.37-2.2-0.61-3.72-0.67h-2.14l4.21-1.46c-0.85-0.12-1.71-0.37-2.68-0.61c-0.61-0.18-1.47-0.24-2.56-0.18l-1.47,0.06
	l2.87-0.98l-0.43-1.04l1.59,0.49l2.32-1.04c0.79-0.18,1.95-0.73,3.54-1.59c-3.66-0.31-6.47-0.37-8.42,0l-5.19,1.4V10.7l-0.37-0.49
	l1.53-0.06l0.49-0.67c0.49-0.55,1.04-0.92,1.65-1.22c0.92-0.49,1.89-0.98,2.93-1.34c-3.48,0.06-6.35,0.79-8.55,2.14
	c-1.22,0.79-2.08,1.95-2.44,3.6c-0.24,0.85-0.31,1.59-0.24,2.26c-1.28-1.22-2.56-2.01-3.91-2.44c-1.28-0.49-2.81-0.43-4.58,0.12
	c-1.53,0.55-2.26,0.85-2.2,0.85c0.43,0,0.79,0,0.98,0.06c0.67,0,1.16,0.12,1.53,0.31c0.92,0.49,1.47,0.79,1.77,1.04l0.98-0.85
	l0.18,1.34l1.65,2.44c-2.81-0.73-5-0.98-6.65-0.73c-0.98,0.12-2.5,1.16-4.58,3.23l-2.69,2.93l4.88-0.79l0.37-0.79l1.16,1.1
	l2.08-0.18l0.18,0.61l-3.66,0.37c-0.67,0.06-1.47,0.43-2.5,1.1l-1.4,0.92l2.44,0.55c0.18,0,0.43-0.12,0.61-0.31
	c0.12-0.12,0.18-0.31,0.31-0.55l0.18,0.85l3.42,0.31c-2.5,0.98-4.39,1.95-5.68,2.93c-0.24,0.12-0.49,0.37-0.73,0.55
	c-0.61,0.61-1.22,1.34-1.89,2.26l-0.98,1.77l3.05-2.01l0.18-1.59l1.28,0.67l2.07-0.49l0.18,0.61c0.18,0.31,0.31,0.43,0.49,0.24
	c0.55-0.67,1.4-1.28,2.62-1.89c0.98-0.06,1.4,0.06,1.28,0.31c-0.3,0.55-0.79,1.22-1.34,2.01c-0.37,0.49-0.61,0.98-0.79,1.53
	c-0.43,1.22-0.61,2.56-0.49,4.03l1.22-1.83c0.37-0.31,0.73-0.55,1.22-0.79l0.49,0.55l1.47-1.53c0.31-0.24,0.73-0.37,1.16-0.37
	l0.06,3.97l0.67-0.37l0.06,2.07h1.59c0.37-0.79,0.73-1.95,1.1-3.48l0.43-2.08l0.85-0.06c0.61,0,1.04,0.12,1.28,0.37
	c0.18,0.12-0.06,1.28-0.61,3.42l0.61-0.55c0.43-0.31,0.67-0.37,0.79-0.24c0.18,0.24,0.18,0.85,0,1.83l1.04,0.37v0.43h2.14v-0.18
	l1.28-0.24c0-0.55,0-1.1,0-1.59c0.24,0.06,0.61,0.18,0.98,0.43c0.37,0.18,0.67,0.55,0.85,1.16l0.49-0.49v0.85l1.1,1.46
	c-1.65-0.12-2.99-0.12-4.09,0c-0.12,0-0.18,0.06-0.24,0.06c-0.73,0.18-1.77,0.79-3.24,1.89l-2.2,1.77l3.91-0.31l0.43-0.31l0.43,0.61
	l0.67-0.12l0.98-0.18l0.12,0.61l-1.1,0.06l-1.89,0.12c-0.67,0.06-1.59,0.49-2.87,1.28c-0.12,0.06,0.06,0.18,0.61,0.31
	c0.49,0.12,0.85,0.18,1.16,0.18c0.24,0,0.49-0.18,0.79-0.61l0.37,0.61h1.28c-0.92,0.49-1.83,1.1-2.75,1.77
	c-0.55,0.37-1.28,1.1-2.26,2.14l-1.22,1.4l3.36-1.95c0.49-0.06,0.98,0.12,1.59,0.55l1.83-1.1l0.12-0.12
	c0.24-0.06,0.61-0.06,1.1-0.06l-1.22,2.01l-0.55,0.92c-0.24,0.49-0.37,1.1-0.31,1.83c0,0.43,0.06,0.73,0.12,0.98l0.73-1.47
	l0.12-0.31l0.37,0.92l1.22-1.83c0.24-0.31,0.49-0.55,0.85-0.73c0.37,0.73,0.55,1.22,0.49,1.47c-0.06,0.24-0.24,0.73-0.49,1.34
	l0.31,0.43l0.37,1.04c0,0.49-0.18,1.04-0.55,1.77c1.04-1.1,1.59-1.83,1.65-2.14c-0.06-0.24,0.06-0.37,0.37-0.43
	c0.06-0.06,0.18-0.12,0.31-0.12l0.49-2.75l1.34,0.55c0.31,0.31,0.06,1.22-0.55,2.87l1.16-0.67l-0.12,1.34l0.67,0.06l-0.37,12.09
	c-0.67,9.28-2.08,17.09-4.21,23.5h2.56c2.2-5.92,3.36-17.76,3.42-35.58l0.79,0.43l0.12-1.95l0.67-0.18
	c-0.31-0.61-0.49-1.16-0.73-1.83c-0.06-0.18-0.12-0.37-0.18-0.49l-0.49-2.38l0.37-0.06l0.73,2.81l0.49-0.18l0.18,3.3l0.79-0.61
	l0.06,1.77c0.55-0.43,0.79-1.16,0.79-2.01l-0.12-2.87l1.4,1.65c0.18,0.55,0.49,1.34,0.98,2.44c0.37-3.11,0.43-5,0.18-5.62
	l-0.49-1.77c1.1,1.22,1.65,2.01,1.65,2.32c0,0.18,0,0.18,0.06,0c0-0.18,0.06-0.55,0.12-1.16l0.67,2.44
	c0.31-1.89,0.06-3.36-0.67-4.27c-0.43-0.61-1.16-1.28-2.08-1.95l-1.28-0.79l1.16-0.18c0.92-0.06,1.4-0.06,1.65,0.18
	c0.31,0.31,0.31,0-0.12-0.98l1.16,0.92l0.55-0.18c0.49-0.06,0.98,0,1.4,0.18c0.73,0.24,1.4,0.61,2.07,1.04
	C234.31,43.9,233.21,42.62,232.3,42.19z M216.06,36.76h-0.92c-0.06-0.98-0.18-1.89-0.43-2.69l-1.16-4.03l0.61-0.79l1.22,4.21
	l0.92-0.12l0.18,3.42C216.37,36.76,216.24,36.76,216.06,36.76z M217.16,36.82l0.3-0.37l0.12,0.43
	C217.46,36.88,217.28,36.82,217.16,36.82z M221.43,38.96c-0.92-0.49-1.83-1.04-2.62-1.59c0.12-0.73,0.12-1.4,0.12-2.08l-0.37-3.05
	l0.67,0.24c0.49,0.24,0.79,0.61,0.98,1.1c0.37,0.92,0.92,2.14,1.71,3.72C221.68,37.92,221.55,38.47,221.43,38.96z"/>
<path class="st0" d="M176.45,38.96h-8.36l-7.2,27.1h8l0.55-3.42h5.8l0.61,3.42h8.06L176.45,38.96z M172.24,47.99h0.24
	c0.12,0.98,0.24,2.01,0.43,2.99l0.98,5.19h-3.05l1.04-5.19C171.99,50.43,172.11,49.39,172.24,47.99z"/>
<path class="st1" d="M202.39,70.27c-1.95,0.18-4.52,0.67-7.63,1.47c-0.06,0-0.12,0-0.18,0.06c-0.43,0.06-0.37-0.12,0.06-0.61
	c0.55-0.73,0.73-1.16,0.49-1.4c-0.67-0.91-2.32-1.16-4.94-0.73c-2.38,0.31-4.46,0.92-6.23,1.89c-1.47,0.73-2.56,1.04-3.24,0.98
	c-0.37-0.06-0.3-0.73,0.24-1.95c0.37-1.22,0.18-1.71-0.79-1.46c-0.18,0-1.04,0.24-2.56,0.73c-1.04,0.37-1.89,0.49-2.56,0.31
	c-0.43-0.06-0.49-0.37-0.12-0.73c0.37-0.61,0.61-1.04,0.61-1.16c-0.06-0.49-0.61-0.61-1.59-0.3c-0.98,0.3-1.65,0.55-2.14,0.79
	c-0.31,0.18-1.46,0.92-3.3,2.2c-0.37,0.24-0.91,0.3-1.65,0.3c-0.92-0.06-1.77,0.12-2.5,0.49c-0.55,0.24-0.92,0.67-1.04,1.28
	c-0.12,0.55,0,0.98,0.43,1.22c0.67,0.31,2.93-0.55,6.84-2.62c0.06,0.06-0.12,0.43-0.43,1.28c-0.31,0.79-0.18,1.28,0.18,1.4
	c0.79,0.24,1.83-0.06,3.23-0.86c1.34-0.85,2.26-1.16,2.87-0.98c0.18,0.06,0.12,0.37-0.24,0.98c-0.37,0.61-0.37,0.98-0.06,1.04
	c1.65,0.55,3.54,0.49,5.68-0.18c1.22-0.43,3.11-1.1,5.61-2.01c1.46-0.49,2.38-0.55,2.75-0.12c0.06,0-0.06,0.49-0.37,1.34
	c-0.24,0.67,0,1.04,0.73,0.98c1.1,0,4.76-0.43,10.86-1.28c4.39-0.61,8.12-0.67,11.23-0.12c0.61,0.06,0.98-0.06,1.04-0.37
	c0-0.31-0.12-0.55-0.49-0.79c-0.55-0.37-1.28-0.61-2.26-0.79C208.31,69.96,205.44,69.9,202.39,70.27z"/>
<path class="st1" d="M138.79,39.5h-14.04v52.8h14.04V68.01h0.06l8.73,24.29h15.08l-12.51-27.34l11.23-25.45h-14.83l-7.69,22.46
	h-0.06V39.5z"/>
<path class="st1" d="M101.98,39.69l-4.03,17.82c-0.12,0.67-0.49,2.38-1.1,5.13c-0.43,2.08-0.73,3.6-0.79,4.7l-5.62-27.71
	l-14.16,0.06L70.55,92.3h13.12l1.77-21.73c0.24-1.77,0.43-3.97,0.49-6.59l6.1,28.32l8.36-0.12l2.99-14.71
	c1.59-5.55,2.62-10.01,3.17-13.49c0-0.06,0-0.12,0-0.18l0.12,0.18l1.95,28.14h13.43l-6.41-52.43H101.98z"/>
<path class="st1" d="M63.72,81.01h5.43V69.84h-5.43V38.83h-21l-26,42.24l29.91-0.06v10.74h17.09V81.01z M47.66,53.85
	c-0.12,1.28-0.24,2.56-0.31,3.91c-0.12,0.85-0.12,1.59-0.12,2.2v9.89h-9.71c1.22-1.59,2.5-3.36,3.78-5.25
	c1.28-1.95,2.5-4.03,3.78-6.23L47.66,53.85z"/>
<path class="st0" d="M204.53,78.32c-1.16,1.28-1.71,3.24-1.71,5.86c0,1.83,0.24,3.3,0.79,4.46c0.55,1.1,1.28,1.89,2.14,2.38
	c0.92,0.49,2.07,0.73,3.6,0.73c1.22,0,2.26-0.18,3.05-0.61c0.85-0.37,1.47-0.98,1.95-1.83c0.43-0.79,0.67-1.71,0.67-2.69
	c0-1.4-0.49-2.56-1.4-3.54c-0.92-0.98-2.01-1.46-3.3-1.46c-0.73,0-1.28,0.12-1.83,0.37c-0.49,0.24-1.04,0.61-1.53,1.16
	c0.12-1.65,0.37-2.69,0.61-3.17c0.37-0.67,0.91-0.98,1.59-0.98c0.37,0,0.67,0.12,0.92,0.37c0.24,0.24,0.43,0.61,0.55,1.22l4.09-0.49
	c-0.24-0.85-0.61-1.53-1.04-2.01c-0.49-0.55-1.04-0.92-1.71-1.22c-0.67-0.24-1.59-0.37-2.81-0.37
	C207.21,76.49,205.62,77.1,204.53,78.32z M207.15,86.62c0-0.73,0.18-1.34,0.55-1.77c0.43-0.43,0.85-0.67,1.47-0.67
	c0.55,0,0.98,0.24,1.4,0.67c0.37,0.43,0.55,1.1,0.55,1.95c0,0.79-0.18,1.4-0.55,1.83c-0.37,0.37-0.79,0.61-1.34,0.61
	c-0.61,0-1.1-0.24-1.46-0.73C207.33,88.09,207.15,87.48,207.15,86.62z"/>
<path class="st0" d="M189.88,78.51c-0.37,0.67-0.67,1.59-0.85,2.69l4.15,0.31c0.06-0.79,0.31-1.4,0.67-1.71
	c0.31-0.3,0.73-0.49,1.22-0.49c0.55,0,0.92,0.18,1.28,0.49c0.37,0.31,0.55,0.67,0.55,1.16c0,0.37-0.18,0.85-0.55,1.28
	c-0.37,0.49-1.1,1.22-2.32,2.07c-2.01,1.47-3.3,2.75-4.03,3.78c-0.73,1.1-1.1,2.2-1.28,3.42h12.33v-3.36h-6.41
	c0.37-0.37,0.73-0.67,0.98-0.85c0.3-0.24,0.85-0.67,1.65-1.22c1.4-0.98,2.38-1.89,2.93-2.69c0.49-0.85,0.79-1.71,0.79-2.62
	c0-0.85-0.24-1.59-0.73-2.26c-0.43-0.73-1.04-1.22-1.89-1.53c-0.79-0.37-1.95-0.49-3.36-0.49c-1.4,0-2.5,0.18-3.3,0.49
	C190.98,77.35,190.36,77.84,189.88,78.51z"/>
<path class="st0" d="M183.83,76.86c-0.67-0.24-1.47-0.37-2.5-0.37c-2.01,0-3.54,0.55-4.58,1.65c-0.98,1.16-1.53,3.11-1.53,5.92
	c0,1.16,0.12,2.2,0.3,3.11c0.18,0.98,0.49,1.77,0.85,2.26c0.49,0.79,1.1,1.34,1.89,1.77c0.73,0.37,1.77,0.55,2.99,0.55
	c2.2,0,3.78-0.61,4.64-1.83c0.92-1.28,1.4-3.23,1.4-5.86c0-1.22-0.12-2.38-0.37-3.48c-0.18-0.61-0.37-1.1-0.61-1.53
	c-0.18-0.43-0.55-0.85-0.92-1.28C184.99,77.41,184.5,77.1,183.83,76.86z M181.27,79.18c0.61,0,1.16,0.37,1.46,1.04
	c0.37,0.67,0.49,2.01,0.49,3.97c0,1.34-0.06,2.32-0.18,2.93c-0.18,0.67-0.37,1.16-0.67,1.4c-0.31,0.3-0.73,0.43-1.1,0.43
	c-0.67,0-1.16-0.3-1.46-0.98c-0.31-0.73-0.49-2.01-0.49-3.91c0-1.83,0.12-3.11,0.43-3.85C180.05,79.54,180.54,79.18,181.27,79.18z"
	/>
<path class="st0" d="M164.67,82.9c0.61-0.3,1.28-0.67,1.95-1.22v9.83h4.15V76.49h-3.42c-0.43,0.92-1.04,1.65-1.83,2.32
	c-0.73,0.67-1.83,1.16-3.24,1.65v3.36C163.2,83.51,164,83.21,164.67,82.9z"/>
</svg>
