<?xml version="1.0" encoding="utf-8"?>
<!-- Generator: Adobe Illustrator 24.2.1, SVG Export Plug-In . SVG Version: 6.00 Build 0)  -->
<svg version="1.1" id="Layer_1" xmlns="http://www.w3.org/2000/svg" xmlns:xlink="http://www.w3.org/1999/xlink" x="0px" y="0px"
	 viewBox="0 0 400 400" style="enable-background:new 0 0 400 400;" xml:space="preserve">
<style type="text/css">
	.st0{fill:#FFD200;}
	.st1{fill:#273577;}
</style>
<g>
	<path class="st0" d="M347.29,182.23h-3.58h-9.22h-2.66h-1.84l-5.22,22.23l-5.22-22.23h-17.92v45.37h13.01l-0.82-24.99l5.84,24.99
		h10.14l5.94-25.09l-0.82,25.09h13.01V206.2l-1.23,2.46c-0.1-0.41-0.2-0.92-0.2-1.64c-0.1-1.23,0.1-2.25,0.51-3.07l0.92-1.54v-3.07
		l-3.07,1.84c-1.02-0.72-1.84-1.02-2.66-0.92l-5.63,3.28l2.05-2.36c1.64-1.74,2.87-2.97,3.79-3.58c1.54-1.13,3.07-2.15,4.61-2.97
		h-2.15l-0.61-1.02c-0.51,0.72-0.92,1.02-1.33,1.02c-0.51,0-1.13-0.1-1.95-0.31c-0.92-0.21-1.23-0.41-1.02-0.51
		c2.15-1.33,3.69-2.05,4.81-2.15l3.18-0.2v-0.82l-1.13,0.2l-0.72-1.02l-0.72,0.51l-6.56,0.51l3.69-2.97
		c2.46-1.84,4.2-2.87,5.43-3.18v-2.46H347.29z"/>
	<path class="st1" d="M378.12,187.56c-1.02-0.41-2.66-0.72-4.92-0.72l-2.97-0.1l6.35-1.64c-0.72-0.41-1.64-0.82-2.77-1.13
		l-3.99-0.51l3.28-1.13l-0.41-1.13l1.74,0.51l2.66-1.23c0.82-0.2,2.15-0.61,4.1-1.43c-4.61-0.31-7.89-0.51-9.63-0.31
		c-1.23,0-2.56,0.31-3.99,0.82l-1.95,0.82v-2.97l-0.82-1.13h1.54l2.76-2.15c1.02-0.61,2.36-1.13,3.69-1.64
		c-2.15,0.1-3.89,0.21-5.43,0.41c0,0,0,0,0,0.1c-2.15,0.31-3.58,0.92-4.3,1.74c-0.51,0.51-1.02,1.23-1.43,2.15
		c0-3.28-0.1-5.53-0.31-6.76l-1.64-6.45l5.12,5.94c0.41,0.72,0.61,0.31,0.82-1.23l1.74,4.4c0.2-1.02,0.2-2.46,0.1-4.3
		c-0.41-3.69-1.54-6.45-3.58-7.99c-1.43-1.23-3.38-2.46-5.94-3.59l-3.38-1.54l3.07-0.41c2.15-0.21,3.48-0.1,3.99,0.41
		c0.72,0.82,0.72,0-0.2-2.36l2.87,1.95l1.43-0.51c1.13-0.21,2.25-0.21,3.38,0l5.63,1.43c-0.72-3.18-3.38-5.74-7.78-7.48
		c-1.54-0.61-3.69-1.02-6.25-1.13h-3.58l7.07-2.46c-1.43-0.21-2.87-0.61-4.51-1.02c-1.02-0.31-2.46-0.41-4.3-0.31l-2.46,0.1
		l4.81-1.64l-0.72-1.74l2.66,0.82l3.89-1.74c1.33-0.31,3.28-1.23,5.94-2.66c-6.15-0.51-10.86-0.61-14.13,0l-8.71,2.36v-4.3
		l-0.61-0.82l2.56-0.1l0.82-1.13c0.82-0.92,1.74-1.54,2.76-2.05c1.54-0.82,3.18-1.64,4.92-2.25c-5.84,0.1-10.65,1.33-14.34,3.59
		c-2.05,1.33-3.48,3.28-4.1,6.04c-0.41,1.43-0.51,2.66-0.41,3.79c-2.15-2.05-4.3-3.38-6.56-4.1c-2.15-0.82-4.71-0.72-7.68,0.2
		c-2.56,0.92-3.79,1.43-3.69,1.43c0.72,0,1.33,0,1.64,0.1c1.13,0,1.95,0.21,2.56,0.51c1.54,0.82,2.46,1.33,2.97,1.74l1.64-1.43
		l0.31,2.25l2.76,4.1c-4.71-1.23-8.4-1.64-11.16-1.23c-1.64,0.2-4.2,1.95-7.68,5.43l-4.51,4.92l8.19-1.33l0.62-1.33l1.95,1.84
		l3.48-0.31l0.31,1.02l-6.14,0.61c-1.13,0.1-2.46,0.72-4.2,1.84l-2.36,1.54l4.1,0.92c0.31,0,0.72-0.21,1.02-0.51
		c0.2-0.21,0.31-0.51,0.51-0.92l0.31,1.43l5.74,0.51c-4.2,1.64-7.38,3.28-9.53,4.92c-0.41,0.2-0.82,0.61-1.23,0.92
		c-1.02,1.02-2.05,2.25-3.17,3.79l-1.64,2.97l5.12-3.38l0.31-2.66l2.15,1.13l3.48-0.82l0.31,1.02c0.31,0.51,0.51,0.72,0.82,0.41
		c0.92-1.13,2.36-2.15,4.4-3.18c1.64-0.1,2.36,0.1,2.15,0.51c-0.51,0.92-1.33,2.05-2.25,3.38c-0.61,0.82-1.02,1.64-1.33,2.56
		c-0.72,2.05-1.02,4.3-0.82,6.76l2.05-3.07c0.62-0.51,1.23-0.92,2.05-1.33l0.82,0.92l2.46-2.56c0.51-0.41,1.23-0.61,1.95-0.61
		l0.1,6.66l1.13-0.61l0.1,3.48h2.66c0.61-1.33,1.23-3.28,1.84-5.84l0.72-3.48l1.43-0.1c1.02,0,1.74,0.21,2.15,0.61
		c0.31,0.21-0.1,2.15-1.02,5.74l1.02-0.92c0.72-0.51,1.13-0.62,1.33-0.41c0.31,0.41,0.31,1.43,0,3.07l1.74,0.61v0.72h3.58v-0.31
		l2.15-0.41c0-0.92,0-1.84,0-2.66c0.41,0.1,1.02,0.31,1.64,0.72c0.61,0.31,1.13,0.92,1.43,1.95l0.82-0.82v1.43l1.84,2.46
		c-2.77-0.2-5.02-0.2-6.86,0c-0.2,0-0.31,0.1-0.41,0.1c-1.23,0.31-2.97,1.33-5.43,3.18l-3.69,2.97l6.56-0.51l0.72-0.51l0.72,1.02
		l1.13-0.2l1.64-0.31l0.2,1.02l-1.84,0.1l-3.18,0.2c-1.13,0.1-2.66,0.82-4.81,2.15c-0.2,0.1,0.1,0.31,1.02,0.51
		c0.82,0.21,1.43,0.31,1.95,0.31c0.41,0,0.82-0.31,1.33-1.02l0.61,1.02h2.15c-1.54,0.82-3.07,1.84-4.61,2.97
		c-0.92,0.62-2.15,1.84-3.79,3.58l-2.05,2.36l5.63-3.28c0.82-0.1,1.64,0.21,2.66,0.92l3.07-1.84l0.2-0.2c0.41-0.1,1.02-0.1,1.84-0.1
		l-2.05,3.38l-0.92,1.54c-0.41,0.82-0.61,1.84-0.51,3.07c0,0.72,0.1,1.23,0.2,1.64l1.23-2.46l0.2-0.51l0.62,1.54l2.05-3.07
		c0.41-0.51,0.82-0.92,1.43-1.23c0.62,1.23,0.92,2.05,0.82,2.46c-0.1,0.41-0.41,1.23-0.82,2.25l0.51,0.72l0.61,1.74
		c0,0.82-0.31,1.74-0.92,2.97c1.74-1.84,2.66-3.07,2.77-3.58c-0.1-0.41,0.1-0.62,0.61-0.72c0.1-0.1,0.31-0.2,0.51-0.2l0.82-4.61
		l2.25,0.92c0.51,0.51,0.1,2.05-0.92,4.81l1.95-1.13l-0.2,2.25l1.13,0.1l-0.61,20.28c-1.13,15.57-3.48,28.68-7.07,39.43h4.3
		c3.69-9.94,5.63-29.81,5.73-59.72l1.33,0.72l0.2-3.28l1.13-0.31c-0.51-1.02-0.82-1.95-1.23-3.07c-0.1-0.31-0.2-0.61-0.31-0.82
		l-0.82-4l0.62-0.1l1.23,4.71l0.82-0.31l0.31,5.53l1.33-1.02l0.1,2.97c0.92-0.72,1.33-1.95,1.33-3.38l-0.21-4.81l2.36,2.76
		c0.31,0.92,0.82,2.25,1.64,4.1c0.61-5.22,0.72-8.4,0.31-9.42l-0.82-2.97c1.84,2.05,2.76,3.38,2.76,3.89c0,0.31,0,0.31,0.1,0
		c0-0.31,0.1-0.92,0.21-1.95l1.13,4.1c0.51-3.17,0.1-5.63-1.13-7.17c-0.72-1.02-1.95-2.15-3.48-3.28l-2.15-1.33l1.95-0.31
		c1.54-0.1,2.35-0.1,2.77,0.31c0.51,0.51,0.51,0-0.2-1.64l1.95,1.54l0.92-0.31c0.82-0.1,1.64,0,2.36,0.31
		c1.23,0.41,2.36,1.02,3.48,1.74C381.5,190.42,379.66,188.27,378.12,187.56z M350.87,178.44h-1.54c-0.1-1.64-0.31-3.18-0.72-4.51
		l-1.95-6.76l1.02-1.33l2.05,7.07l1.54-0.2l0.31,5.74C351.39,178.44,351.18,178.44,350.87,178.44z M352.72,178.54l0.51-0.61
		l0.2,0.72C353.23,178.64,352.92,178.54,352.72,178.54z M359.89,182.13c-1.54-0.82-3.07-1.74-4.4-2.66c0.2-1.23,0.2-2.36,0.2-3.48
		l-0.61-5.12l1.13,0.41c0.82,0.41,1.33,1.02,1.64,1.84c0.61,1.54,1.54,3.58,2.87,6.25C360.3,180.39,360.09,181.31,359.89,182.13z"/>
	<path class="st0" d="M284.4,182.13h-14.03l-12.09,45.48h13.42l0.92-5.74h9.73l1.02,5.74h13.52L284.4,182.13z M277.33,197.29h0.41
		c0.2,1.64,0.41,3.38,0.72,5.02l1.64,8.71h-5.12l1.74-8.71C276.92,201.38,277.13,199.64,277.33,197.29z"/>
	<path class="st1" d="M327.93,234.67c-3.28,0.31-7.58,1.13-12.8,2.46c-0.1,0-0.2,0-0.31,0.1c-0.72,0.1-0.61-0.2,0.1-1.02
		c0.92-1.23,1.23-1.95,0.82-2.36c-1.13-1.54-3.89-1.95-8.3-1.23c-3.99,0.51-7.48,1.54-10.45,3.18c-2.46,1.23-4.3,1.74-5.43,1.64
		c-0.61-0.1-0.51-1.23,0.41-3.28c0.62-2.05,0.31-2.87-1.33-2.46c-0.31,0-1.74,0.41-4.3,1.23c-1.74,0.62-3.17,0.82-4.3,0.51
		c-0.72-0.1-0.82-0.61-0.2-1.23c0.61-1.02,1.02-1.74,1.02-1.95c-0.1-0.82-1.02-1.02-2.66-0.51c-1.64,0.51-2.77,0.92-3.58,1.33
		c-0.51,0.31-2.46,1.54-5.53,3.69c-0.61,0.41-1.54,0.51-2.77,0.51c-1.54-0.1-2.97,0.2-4.2,0.82c-0.92,0.41-1.54,1.13-1.74,2.15
		c-0.2,0.92,0,1.64,0.72,2.05c1.13,0.51,4.92-0.92,11.47-4.4c0.1,0.1-0.21,0.72-0.72,2.15c-0.51,1.33-0.31,2.15,0.31,2.36
		c1.33,0.41,3.07-0.1,5.43-1.43c2.25-1.43,3.79-1.95,4.81-1.64c0.31,0.1,0.2,0.61-0.41,1.64c-0.61,1.02-0.61,1.64-0.1,1.74
		c2.77,0.92,5.94,0.82,9.53-0.31c2.05-0.72,5.22-1.84,9.42-3.38c2.46-0.82,3.99-0.92,4.61-0.2c0.1,0-0.1,0.82-0.61,2.25
		c-0.41,1.13,0,1.74,1.23,1.64c1.84,0,7.99-0.72,18.23-2.15c7.38-1.02,13.62-1.13,18.85-0.2c1.02,0.1,1.64-0.1,1.74-0.62
		c0-0.51-0.21-0.92-0.82-1.33c-0.92-0.61-2.15-1.02-3.79-1.33C337.86,234.16,333.05,234.06,327.93,234.67z"/>
	<path class="st1" d="M221.2,183.05h-23.56v88.6h23.56v-40.77h0.1l14.65,40.77h25.3l-21-45.89l18.85-42.71h-24.89l-12.91,37.69h-0.1
		V183.05z"/>
	<path class="st1" d="M159.44,183.36l-6.76,29.91c-0.2,1.13-0.82,3.99-1.84,8.6c-0.72,3.48-1.23,6.04-1.33,7.89l-9.42-46.5
		l-23.76,0.1l-9.63,88.29h22.02l2.97-36.46c0.41-2.97,0.72-6.66,0.82-11.06l10.24,47.53l14.03-0.2l5.02-24.69
		c2.66-9.32,4.4-16.8,5.33-22.64c0-0.1,0-0.2,0-0.31l0.21,0.31l3.28,47.22h22.53l-10.75-87.98H159.44z"/>
	<path class="st1" d="M95.22,252.7h9.12v-18.74h-9.12v-52.03H59.98L16.35,252.8l50.19-0.1v18.03h28.68V252.7z M68.28,207.12
		c-0.2,2.15-0.41,4.3-0.51,6.55c-0.2,1.43-0.2,2.66-0.2,3.69v16.59H51.28c2.05-2.66,4.2-5.63,6.35-8.81
		c2.15-3.28,4.2-6.76,6.35-10.45L68.28,207.12z"/>
	<path class="st0" d="M331.52,248.19c-1.95,2.15-2.87,5.43-2.87,9.83c0,3.07,0.41,5.53,1.33,7.48c0.92,1.84,2.15,3.17,3.58,3.99
		c1.54,0.82,3.48,1.23,6.04,1.23c2.05,0,3.79-0.31,5.12-1.02c1.43-0.61,2.46-1.64,3.28-3.07c0.72-1.33,1.13-2.87,1.13-4.51
		c0-2.36-0.82-4.3-2.35-5.94c-1.54-1.64-3.38-2.46-5.53-2.46c-1.23,0-2.15,0.2-3.07,0.61c-0.82,0.41-1.74,1.02-2.56,1.95
		c0.2-2.77,0.61-4.51,1.02-5.33c0.61-1.13,1.54-1.64,2.66-1.64c0.61,0,1.13,0.2,1.54,0.61c0.41,0.41,0.72,1.02,0.92,2.05l6.86-0.82
		c-0.41-1.43-1.02-2.56-1.74-3.38c-0.82-0.92-1.74-1.54-2.87-2.05c-1.13-0.41-2.66-0.61-4.71-0.61
		C336.02,245.12,333.36,246.14,331.52,248.19z M335.92,262.12c0-1.23,0.31-2.25,0.92-2.97c0.72-0.72,1.43-1.13,2.46-1.13
		c0.92,0,1.64,0.41,2.35,1.13c0.62,0.72,0.92,1.84,0.92,3.28c0,1.33-0.31,2.36-0.92,3.07c-0.61,0.61-1.33,1.02-2.25,1.02
		c-1.02,0-1.84-0.41-2.46-1.23C336.23,264.58,335.92,263.55,335.92,262.12z"/>
	<path class="st0" d="M306.93,248.5c-0.61,1.13-1.13,2.66-1.43,4.51l6.96,0.51c0.1-1.33,0.51-2.36,1.13-2.87
		c0.51-0.51,1.23-0.82,2.05-0.82c0.92,0,1.54,0.31,2.15,0.82c0.61,0.51,0.92,1.13,0.92,1.95c0,0.62-0.31,1.43-0.92,2.15
		c-0.61,0.82-1.84,2.05-3.89,3.48c-3.38,2.46-5.53,4.61-6.76,6.35c-1.23,1.84-1.84,3.69-2.15,5.73h20.69v-5.63h-10.76
		c0.61-0.61,1.23-1.13,1.64-1.43c0.51-0.41,1.43-1.13,2.77-2.05c2.36-1.64,3.99-3.18,4.92-4.51c0.82-1.43,1.33-2.87,1.33-4.4
		c0-1.43-0.41-2.66-1.23-3.79c-0.72-1.23-1.74-2.05-3.18-2.56c-1.33-0.61-3.28-0.82-5.63-0.82c-2.36,0-4.2,0.31-5.53,0.82
		C308.78,246.55,307.75,247.37,306.93,248.5z"/>
	<path class="st0" d="M296.79,245.73c-1.13-0.41-2.46-0.61-4.2-0.61c-3.38,0-5.94,0.92-7.68,2.77c-1.64,1.95-2.56,5.22-2.56,9.94
		c0,1.95,0.2,3.69,0.51,5.22c0.31,1.64,0.82,2.97,1.43,3.79c0.82,1.33,1.84,2.25,3.18,2.97c1.23,0.62,2.97,0.92,5.02,0.92
		c3.69,0,6.35-1.02,7.79-3.07c1.54-2.15,2.35-5.43,2.35-9.83c0-2.05-0.2-3.99-0.61-5.84c-0.31-1.02-0.61-1.84-1.02-2.56
		c-0.31-0.72-0.92-1.43-1.54-2.15C298.74,246.65,297.92,246.14,296.79,245.73z M292.49,249.63c1.02,0,1.95,0.61,2.46,1.74
		c0.61,1.13,0.82,3.38,0.82,6.66c0,2.25-0.1,3.89-0.31,4.92c-0.31,1.13-0.62,1.95-1.13,2.36c-0.51,0.51-1.23,0.72-1.84,0.72
		c-1.13,0-1.95-0.51-2.46-1.64c-0.51-1.23-0.82-3.38-0.82-6.55c0-3.07,0.2-5.23,0.72-6.45
		C290.44,250.24,291.26,249.63,292.49,249.63z"/>
	<path class="st0" d="M264.63,255.87c1.02-0.51,2.15-1.13,3.28-2.05v16.49h6.96v-25.2h-5.74c-0.72,1.54-1.74,2.77-3.07,3.89
		c-1.23,1.13-3.07,1.95-5.43,2.77v5.63C262.17,256.9,263.5,256.39,264.63,255.87z"/>
</g>
</svg>
