<?xml version="1.0" encoding="utf-8"?>
<!-- Generator: Adobe Illustrator 23.0.3, SVG Export Plug-In . SVG Version: 6.00 Build 0)  -->
<svg version="1.1" id="Layer_1" xmlns="http://www.w3.org/2000/svg" xmlns:xlink="http://www.w3.org/1999/xlink" x="0px" y="0px"
	 viewBox="0 0 2210.7 432" style="enable-background:new 0 0 2210.7 432;" xml:space="preserve">
<style type="text/css">
	.st0{fill:#FFFFFF;}
</style>
<g>
	<g>
		<path class="st0" d="M170.9,22.5c618.3,0,1236.5,0,1854.7,0c7.6,1.5,15.4,2.6,22.9,4.6c59.6,15.6,98.9,54,122,110
			c11.5,27.8,14.5,57,14,86.9c-0.7,40.3-11,77.6-34.2,110.7c-32.7,46.7-77.1,74.3-134.9,74.4c-300.3,1-600.7-0.1-901,0.8
			c-308.9,1-617.9,0.1-926.8,0.3c-35.2,0-65.1-12.2-90.8-35.5c-32-29.2-49.6-66.3-58.1-108.3c-1.5-7.3-1.4-14.8-3.9-21.9
			c0-18.7,0-37.5,0-56.2c1.7-0.7,1-2.3,1.1-3.5c4.1-35.6,15.1-68.8,35.8-98.3c20.8-29.5,47.5-51,83-60.3
			C160.2,24.7,165.6,23.7,170.9,22.5z M1575,368.1c146.3,0,292.5,0,438.8,0c12.3,0,24.3-1.6,35.8-5.6c41.3-14.3,67.8-43.5,83.5-83.4
			c8.7-22.1,10.5-45.2,10.1-68.7c-0.4-28.4-6.8-55.1-21.5-79.4c-26.4-43.3-64.1-67.3-116-67.2c-207.7,0.4-415.4-0.4-623.1,0.4
			c-45.5,0.2-91,0.1-136.5,0.4c-23.4,0.2-46.6,2.3-69.1,9.3c-34.8,10.8-58.4,32.5-66,69.2c-3.8,18.6-4.5,37.5-4.5,56.4
			c-0.1,53.9,0,107.8,0,161.7c0,1,0.1,2,0,3c-0.1,1.8,0.3,2.9,2.4,2.7c7.1-0.8,13.9,1.2,20.9,1.2
			C1278.3,368.1,1426.6,368.1,1575,368.1z M525.8,100.4c-32,0-59.1,0.1-86.2-0.1c-3.8,0-4.6,1-4.5,4.6c0.3,10.2,0.3,20.4,0,30.6
			c-0.1,3.9,1,4.9,4.9,4.9c29.6-0.2,59.2-0.1,88.7-0.1c19.9,0,39.8-0.5,59.6,0.6c7.6,0.4,15.1,1.1,22.1,4.3
			c10.2,4.7,15.1,13.5,14.3,25.7c-0.6,9.3-6.6,16-17.2,19.1c-1.7,0.5-3.5,0.9-5.3,1.2c-8.9,1.7-18,2-27,2
			c-45.2,0-90.4,0.1-135.6-0.1c-3.7,0-4.7,0.9-4.6,4.6c0.3,10.2,0.4,20.4,0,30.5c-0.2,4.6,1.4,5.3,5.5,5.3
			c48.3-0.1,96.6-0.1,144.9-0.1c6.6,0,13.1,0.1,19.6,1.3c13.8,2.4,20.5,11,19.5,24.9c-0.9,12-8.1,20.4-21.2,24.2
			c-9.1,2.6-18.4,3.3-27.8,3.3c-45.5,0-91,0-136.5,0c-3,0-5-0.1-3.9,4.1c4.9,19,26.6,36.2,46.2,36.2c34,0,68,0.1,102,0
			c15.1-0.1,30.2-1.5,45-4.9c37.7-8.6,55.6-31.8,53.2-69.4c-0.9-15-6.1-28.2-19-37.2c-2.7-1.9-1.6-2.7,0.2-4.1
			c7.1-5.6,12.4-12.6,15.5-21.2c3.3-9.3,4-18.9,3.3-28.7c-1.7-22.8-12.1-39.9-33.1-49.8c-14.7-6.9-30.4-9.3-46.3-10.6
			C575.2,99.3,548.1,101,525.8,100.4z M791.6,284.2c28.1,0,56.2,0.1,84.3-0.1c4.2,0,5.2,1.1,5.1,5.2c-0.3,11.2,0,22.3-0.2,33.5
			c0,3.2,0.5,4.5,4.2,4.5c15.4-0.2,30.9-0.2,46.3,0c3.3,0,4.1-0.9,4.1-4.1c-0.2-10.8-0.1-21.7-0.1-32.5c0-7-1.1-6.4,6.2-6.4
			c9.4,0,18.7-0.2,28.1,0.1c3.9,0.1,5.4-0.6,5.3-5c-0.3-11.6-0.3-23.3,0-35c0.1-4.1-1.3-4.9-5-4.8c-9.8,0.2-19.7-0.1-29.6,0.2
			c-4.2,0.1-5.1-1.3-5-5.3c0.2-43.2,0-86.4,0.2-129.6c0-3.7-0.9-4.6-4.6-4.6c-23.8,0.2-47.6,0.1-71.5,0c-2.7,0-4.6,0.9-6.5,2.6
			c-49,45.4-98,90.8-147.1,136.1c-2.4,2.3-3.3,4.5-3.2,7.7c0.2,10.7,0.3,21.4,0,32c-0.1,4.2,0.9,5.6,5.3,5.5
			C735.8,284.1,763.7,284.2,791.6,284.2z M389.6,213.9c0-10.5,0-21,0-31.5c0-25.8-0.1-51.6,0.1-77.4c0-3.7-0.9-4.9-4.6-4.6
			c-4.7,0.3-9.5,0-14.3,0.1c-22.3,0.4-43.4,21-43.5,42.9c-0.1,59.9,0,119.9-0.1,179.8c0,3.2,0.9,4.1,4.1,4.1
			c17.7-0.2,35.5-0.2,53.2,0c4,0,5.2-0.9,5.2-5.1C389.5,286.1,389.6,250,389.6,213.9z M272.5,214.3c0-36.3-0.1-72.6,0.1-109
			c0-4.2-1.2-5.3-5.2-5c-4.6,0.4-9.2,0-13.8,0.1c-22,0.5-43.2,21.2-43.2,42.8c-0.1,60,0,120-0.1,179.9c0,3.7,1.3,4.2,4.5,4.2
			c17.6-0.2,35.2-0.2,52.8,0c4.1,0.1,5.1-1,5.1-5.1C272.4,286.2,272.5,250.3,272.5,214.3z"/>
		<path class="st0" d="M1844.8,332.1c-30.6,0-61.1-0.1-91.7,0.1c-4,0-4.9-1.1-4.8-4.9c0.3-9.8,0.3-19.7,0-29.6
			c-0.2-4.5,1-5.8,5.7-5.8c49.5,0.2,98.9,0.1,148.4,0.1c12.6,0,25.3,0.1,37.7-3.2c3.8-1,7.5-2.3,11-4.3c15.5-8.9,15.6-29.5,0.1-38.6
			c-7.4-4.3-15.6-5.8-24-6.6c-10.7-1-21.3-0.7-32-0.7c-24-0.1-48,0.2-72-0.3c-18.1-0.4-36.1-2.3-52.9-9.7
			c-20.3-8.9-30.6-24.8-32.5-46.7c-0.9-10.1-0.3-20,2.7-29.7c7-23,24.1-34.8,46-40.9c15.6-4.4,31.6-6,47.8-6
			c57.7-0.1,115.4,0,173-0.1c4.2,0,5.7,0.9,5.5,5.3c-0.4,9.5-0.4,19.1,0,28.6c0.2,4.8-0.9,6.4-6.1,6.3
			c-52.1-0.2-104.2-0.1-156.3-0.1c-9.2,0-18.4,0.8-27.3,3.5c-14.5,4.3-22,13.3-22.2,26c-0.1,8.1,3.5,13.8,10.5,17.5
			c8.1,4.3,16.8,5.6,25.7,5.7c32.9,0.2,65.7,0,98.6,0.3c16.6,0.1,33.1,1.7,49.1,6.7c26.5,8.3,40.9,28.1,41.1,55.9
			c0.1,7.9-0.3,15.8-2.4,23.4c-5.9,21.2-20.8,33.2-40.8,39.9c-19.1,6.4-38.9,7.8-58.8,8C1897.4,332.3,1871.1,332.1,1844.8,332.1z"/>
		<path class="st0" d="M1284.6,238.1c-26.1,0-52.3-0.1-78.4,0.1c-3.7,0-5.1-0.7-5-4.8c0.3-10.3,0.3-20.7,0-31
			c-0.1-3.8,1.1-4.6,4.7-4.5c47.2,0.1,94.3,0.1,141.5,0c8.2,0,16.4-0.5,24.4-2.6c12.2-3.1,18.5-9.8,19-20.1
			c0.6-13.2-5.1-22-17.1-26.2c-10.3-3.5-21-3.4-31.7-3.5c-45.2-0.1-90.4-0.1-135.6,0c-4,0-5.3-0.9-5.2-5.1c0.3-10.3,0.2-20.7,0.1-31
			c0-2.7,0.2-4.1,3.6-4.1c51.4,0.2,102.9-0.1,154.3,0.4c16.8,0.1,33.4,2.5,49.3,8.4c25.3,9.4,38.9,28.5,39.6,55.4
			c0.3,11-0.8,21.6-6,31.6c-3.3,6.2-7.7,11.4-13.2,15.7c-1.5,1.1-2.3,1.8-0.3,3.5c34.1,29.3,24,85-18.5,102
			c-20.2,8.1-41.5,9.6-62.9,9.8c-33,0.2-66.1-0.3-99.1,0.2c-20.8,0.3-41.8-18.8-46.6-35.8c-1.1-3.8-0.3-4.7,3.7-4.7
			c44.9,0.1,89.7,0.1,134.6,0.1c9.9,0,19.7-0.6,29.3-3.2c13.3-3.6,21-12.3,21.7-24.3c0.9-14.3-6.2-22.9-20.5-25.1
			c-8.5-1.3-17-1.1-25.6-1.2C1324.7,238,1304.7,238.1,1284.6,238.1z"/>
		<path class="st0" d="M1639.5,332.1c-19.9-0.4-43.7,0.8-67.5-1c-20.5-1.5-40.3-5.6-58.7-15.1c-31.1-16.2-47.5-42.4-51.4-76.7
			c-2.3-20.4-1-40.7,4.9-60.5c10.1-33.9,33.5-54.3,66.6-64.6c19.8-6.1,40.1-8.7,60.7-8.8c37.5-0.2,74.9,0,112.4-0.2
			c4,0,4.9,1.2,4.8,4.9c-0.3,9.9-0.3,19.7,0,29.6c0.1,4.4-0.9,5.8-5.6,5.8c-34.5-0.2-69-0.1-103.5-0.1c-10.1,0-20,1.1-29.7,3.8
			c-19.7,5.3-32.7,17.6-38.6,37.1c-6.1,20.3-7.1,41.1-2.8,61.9c5.1,24.4,19.4,37.2,45.1,41.7c10.1,1.8,20.2,2.3,30.4,2.3
			c33.2,0.1,66.4,0.1,99.6-0.1c4.2,0,5.2,1.2,5.1,5.2c-0.3,9.8-0.3,19.7,0,29.6c0.1,4.1-0.7,5.5-5.3,5.5
			C1685.1,332,1664.3,332.1,1639.5,332.1z"/>
		<path class="st0" d="M775.6,239.7c35.5-32.8,69.9-64.7,104.4-96.5c1.7,0.9,0.9,2.4,0.9,3.5c0,29.6,0.1,59.2,0,88.7
			c0,1.8,1.1,4.4-2.7,4.4C844.5,239.6,810.8,239.7,775.6,239.7z"/>
	</g>
</g>
</svg>
