<svg xmlns="http://www.w3.org/2000/svg" xmlns:xlink="http://www.w3.org/1999/xlink" viewBox="0 0 404 336"><defs><style>.a,.e{fill:#4f7dac;}.b{fill:#eeb613;}.c{fill:url(#a);}.d{fill:url(#b);}.e{stroke:#4f7dac;stroke-miterlimit:10;stroke-width:0.33px;}</style><linearGradient id="a" x1="18.85" y1="186.32" x2="229.63" y2="242.79" gradientUnits="userSpaceOnUse"><stop offset="0" stop-color="#b2dde4"/><stop offset="0.16" stop-color="#6696bb"/><stop offset="0.3" stop-color="#284f96"/><stop offset="0.43" stop-color="#6696bb"/><stop offset="0.56" stop-color="#b2dde4"/><stop offset="0.7" stop-color="#6696bb"/><stop offset="0.8" stop-color="#284f96"/><stop offset="0.9" stop-color="#6696bb"/><stop offset="1" stop-color="#b2dde4"/></linearGradient><linearGradient id="b" x1="16.18" y1="216.94" x2="226.96" y2="273.42" xlink:href="#a"/></defs><title>Coloured</title><path class="a" d="M127.28,1.63v9L49,179.94H18.2L88.4,28.73H5V1.63Z"/><path class="b" d="M305.21,192.12v12.4H271v21.21h34.19v12.52H271V274.2H255.15V192.12Z"/><path class="b" d="M333.94,192.12l27,32.38,27-32.38H402V274.2H386.17V216.57h-.47L362,245.47h-2.23L336,216.57h-.47V274.2H319.67V192.12Z"/><path class="c" d="M12.14,211.37s16-6.7,23.36-7.76c0,0,17-3.53,31.29,1.5,0,0,13.22,5.29,26.27,4.93a75.38,75.38,0,0,0,25.83-4s22-9.17,35.43-5.56c0,0,6.44,1,22.22,6.18,0,0,18.69,7.22,40.72-2.3,0,0,14.64-5.81,23.63-5.37L236,218.86A51.2,51.2,0,0,0,221,223.09s-10.58,5.38-21.16,5.64c0,0-16.48,2-32.09-4.49,0,0-12.6-5.12-15.6-5.12,0,0-12.78-2.73-31.73,4.23,0,0-14.72,6.7-25.21,7.32,0,0-12.43,1.5-29.27-6.08,0,0-8.73-4.67-23.89-4a71,71,0,0,0-21.86,5.29S11,229.52,7.47,230.14Z"/><path class="d" d="M9.47,242s16-6.7,23.36-7.76c0,0,17-3.52,31.29,1.5,0,0,13.23,5.29,26.27,4.94a75.23,75.23,0,0,0,25.83-4.06s22-9.16,35.44-5.55c0,0,6.43,1,22.21,6.17,0,0,18.69,7.23,40.73-2.29,0,0,14.63-5.82,23.62-5.38l-4.85,19.92a51.05,51.05,0,0,0-15.07,4.24s-10.58,5.37-21.16,5.64c0,0-16.48,2-32.08-4.5,0,0-12.61-5.11-15.61-5.11,0,0-12.78-2.73-31.73,4.23,0,0-14.72,6.7-25.21,7.32,0,0-12.43,1.49-29.27-6.09,0,0-8.72-4.67-23.89-4a71,71,0,0,0-21.86,5.29s-9.17,3.61-12.69,4.23Z"/><path class="a" d="M309.07,1.71q42.3,0,67.72,24.29t25.43,63.54q0,39-25.56,63.68t-67.59,24.69h-53.7V1.71Zm-.25,25.63H282.87V152.55h25.95q29.82,0,47.48-17.62t17.64-45.39q0-28.29-17.51-45.25T308.82,27.34Z"/><path class="a" d="M183.49,1.58a62,62,0,0,1,54.63,31.14l-19,15q-13.59-21.1-35.65-21.11-10.77,0-18.2,5.41t-7.44,15.7q0,9,5.38,13.73t18.21,11.08l19,9q20.52,9.76,30.52,21.12t10,28.5q0,22.69-16,36.55t-40.65,13.85a71.16,71.16,0,0,1-37.44-10,72.41,72.41,0,0,1-26.42-27.71l19.24-15q18.72,27.71,44.37,27.71,13.08,0,21.16-6.6t8.07-17.68q0-9.23-5.77-14.51t-19.1-11.61l-18.72-9q-18.74-8.7-29.11-20T130.15,48.82q0-21.1,15.39-34.18T183.49,1.58Z"/><path class="e" d="M10.16,289.67a8.07,8.07,0,0,1,4.28,1.15,7.66,7.66,0,0,1,2.92,3.24,10.79,10.79,0,0,1,1,4.8A19.63,19.63,0,0,1,16,307.67a32.07,32.07,0,0,1-6.41,8.59H4.06a33.14,33.14,0,0,0,4.55-5.2,27.45,27.45,0,0,0,3.39-5.8,7.18,7.18,0,0,1-2.89.59,6.34,6.34,0,0,1-4.95-2.2A8.15,8.15,0,0,1,2.21,298a8.83,8.83,0,0,1,1-4.19,7.92,7.92,0,0,1,2.87-3A7.64,7.64,0,0,1,10.16,289.67ZM6.79,298a4.25,4.25,0,0,0,1,2.84,3.18,3.18,0,0,0,2.53,1.11,3.14,3.14,0,0,0,2.45-1.12,4,4,0,0,0,1-2.69,4.47,4.47,0,0,0-1-3,3.15,3.15,0,0,0-2.55-1.16A3,3,0,0,0,7.72,295,4.41,4.41,0,0,0,6.79,298Z"/><path class="e" d="M35.94,290v4.38H28V300l.46,0h.38A8.64,8.64,0,0,1,33,301a7.4,7.4,0,0,1,2.93,2.89A8.31,8.31,0,0,1,37,308a7.85,7.85,0,0,1-2.39,6,8.67,8.67,0,0,1-6.28,2.29,12.49,12.49,0,0,1-6.13-1.46v-4.34a10.16,10.16,0,0,0,5.39,1.78,5,5,0,0,0,3.37-1.16,3.74,3.74,0,0,0,1.36-2.94A3.64,3.64,0,0,0,30.72,305a7,7,0,0,0-4.22-1.13,13.39,13.39,0,0,0-2.79.34V290Z"/><path class="e" d="M44.05,310.57a2.64,2.64,0,0,1,1.94.83,2.75,2.75,0,0,1,.84,2,2.79,2.79,0,0,1-.81,2,2.71,2.71,0,0,1-3.92,0,2.86,2.86,0,0,1,0-4A2.63,2.63,0,0,1,44.05,310.57Z"/><path class="e" d="M67.21,290v.15L57.06,316.26l-4.26-1.63,8-20.17h-10V290Z"/><path class="e" d="M5.93,319.85a7.71,7.71,0,0,1,3.81,1v2.4A7.27,7.27,0,0,0,6,322a2.67,2.67,0,0,0-1.55.39,1.25,1.25,0,0,0-.56,1.06,1.83,1.83,0,0,0,1,1.45c.19.13.94.51,2.24,1.12a6.52,6.52,0,0,1,2.4,1.79,3.88,3.88,0,0,1,.74,2.38A3.65,3.65,0,0,1,9.06,333a4.71,4.71,0,0,1-3.25,1.11,7.34,7.34,0,0,1-2.23-.3,9,9,0,0,1-2.1-1v-2.65A6.52,6.52,0,0,0,5.57,332a2.54,2.54,0,0,0,1.55-.43,1.33,1.33,0,0,0,.59-1.13,1.8,1.8,0,0,0-1-1.58c-.57-.32-1.3-.7-2.2-1.15A6.4,6.4,0,0,1,2.1,326a3.62,3.62,0,0,1-.79-2.32,3.42,3.42,0,0,1,1.26-2.79A5.11,5.11,0,0,1,5.93,319.85Z"/><path class="e" d="M19.71,319.85a9.51,9.51,0,0,1,2.26.27,10.82,10.82,0,0,1,2.38.91v2.54A10.6,10.6,0,0,0,22,322.5a7.44,7.44,0,0,0-2.21-.33,5.46,5.46,0,0,0-2.61.61,4.44,4.44,0,0,0-1.81,1.73,5.18,5.18,0,0,0,0,5,4.25,4.25,0,0,0,1.8,1.71,5.62,5.62,0,0,0,2.62.6,6.77,6.77,0,0,0,2.12-.33,15.26,15.26,0,0,0,2.56-1.18v2.53a11.79,11.79,0,0,1-2.43,1,9.8,9.8,0,0,1-2.57.3,8.22,8.22,0,0,1-3.83-.88A6.46,6.46,0,0,1,13,330.73a7,7,0,0,1-1-3.61,7.17,7.17,0,0,1,1-3.78,6.74,6.74,0,0,1,2.73-2.59A8.42,8.42,0,0,1,19.71,319.85Z"/><path class="e" d="M33.74,319.85a7.91,7.91,0,0,1,3.79.89,6.75,6.75,0,0,1,2.68,2.57,7.14,7.14,0,0,1,1,3.69,7,7,0,0,1-1,3.62,6.78,6.78,0,0,1-2.67,2.59,8.31,8.31,0,0,1-7.66,0,6.86,6.86,0,0,1-2.68-2.58,7,7,0,0,1-1-3.62,7.14,7.14,0,0,1,1-3.6,6.72,6.72,0,0,1,2.64-2.62A7.92,7.92,0,0,1,33.74,319.85ZM29,327a5.16,5.16,0,0,0,.61,2.49,4.26,4.26,0,0,0,1.71,1.71,4.88,4.88,0,0,0,2.46.61,4.67,4.67,0,0,0,3.43-1.34A4.73,4.73,0,0,0,38.51,327a5.06,5.06,0,0,0-.61-2.5,4.2,4.2,0,0,0-1.7-1.72,5.33,5.33,0,0,0-5,0,4.12,4.12,0,0,0-1.69,1.72A5.11,5.11,0,0,0,29,327Z"/><path class="e" d="M54.09,320v2.1h-4.8V334H46.67V322.13H41.86V320Z"/><path class="e" d="M67.31,320v2.1h-4.8V334H59.89V322.13H55.08V320Z"/><path class="e" d="M73,319.85a7.71,7.71,0,0,1,3.81,1v2.4A7.24,7.24,0,0,0,73.11,322a2.67,2.67,0,0,0-1.55.39A1.25,1.25,0,0,0,71,323.4a1.83,1.83,0,0,0,1,1.45c.2.13.94.51,2.24,1.12a6.52,6.52,0,0,1,2.4,1.79,3.88,3.88,0,0,1,.74,2.38A3.67,3.67,0,0,1,76.17,333a4.76,4.76,0,0,1-3.26,1.11,7.34,7.34,0,0,1-2.23-.3,9.39,9.39,0,0,1-2.1-1v-2.65A6.52,6.52,0,0,0,72.67,332a2.54,2.54,0,0,0,1.55-.43,1.31,1.31,0,0,0,.59-1.13,1.81,1.81,0,0,0-1-1.58c-.57-.32-1.31-.7-2.2-1.15A6.36,6.36,0,0,1,69.2,326a3.62,3.62,0,0,1-.79-2.32,3.4,3.4,0,0,1,1.27-2.79A5.07,5.07,0,0,1,73,319.85Z"/><path class="e" d="M85.38,320a7.82,7.82,0,0,1,3.76.88,6.29,6.29,0,0,1,2.56,2.5,7.25,7.25,0,0,1,.91,3.61,7.09,7.09,0,0,1-.92,3.62,6.28,6.28,0,0,1-2.6,2.45,8.33,8.33,0,0,1-3.87.87H79.71V320Zm-.27,11.82a4.64,4.64,0,0,0,3.48-1.34A4.86,4.86,0,0,0,85,322.13h-2.7v9.72Z"/><path class="e" d="M101.51,320l6,13.93h-2.76l-1.41-3.39h-6L96,334H93.26L98.84,320Zm-3.41,8.49h4.37L100.19,323Z"/><path class="e" d="M111.7,320v11.82h6.57V334h-9.19V320Z"/><path class="e" d="M128.81,320v2.1h-6.13v3.66h5.87v2.1h-5.87v4H129V334h-8.89V320Z"/><path class="e" d="M193.66,289.55a6.89,6.89,0,0,1,6.09,3.52c1.5,2.36,2.27,5.58,2.29,9.68s-.71,7.39-2.18,9.79a6.83,6.83,0,0,1-6,3.61,7,7,0,0,1-6.18-3.53q-2.28-3.54-2.31-9.72t2.21-9.75A6.94,6.94,0,0,1,193.66,289.55ZM190,303q0,8.89,3.74,8.88t3.57-9.37q0-8.75-3.69-8.73T190,303Z"/><path class="e" d="M219.29,289.77l0,4.38-8,0,0,5.58.47,0h.38a8.65,8.65,0,0,1,4.19,1,7.4,7.4,0,0,1,2.94,2.88,8.19,8.19,0,0,1,1.07,4.17,7.87,7.87,0,0,1-2.36,6,8.73,8.73,0,0,1-6.28,2.32,12.55,12.55,0,0,1-6.14-1.44l0-4.34A10.14,10.14,0,0,0,211,312a4.93,4.93,0,0,0,3.36-1.17,3.69,3.69,0,0,0,1.34-2.95,3.61,3.61,0,0,0-1.56-3.12,7.1,7.1,0,0,0-4.23-1.1,13.39,13.39,0,0,0-2.79.34l-.06-14.21Z"/><path class="e" d="M227.5,310.3a2.66,2.66,0,0,1,1.95.83,2.86,2.86,0,0,1,0,4,2.6,2.6,0,0,1-2,.86,2.65,2.65,0,0,1-2-.84,2.74,2.74,0,0,1-.83-2,2.79,2.79,0,0,1,.82-2A2.64,2.64,0,0,1,227.5,310.3Z"/><path class="e" d="M244,289.66l.11,25.93-4.62,0-.11-25.93Z"/><path class="e" d="M178.61,290.14l.11,25.93-4.61,0L174,290.16Z"/><path class="e" d="M308.53,289.67a8,8,0,0,1,4.27,1.15,7.56,7.56,0,0,1,2.93,3.24,10.78,10.78,0,0,1,1,4.79,19.5,19.5,0,0,1-2.41,8.82,31.86,31.86,0,0,1-6.41,8.59h-5.5a33.14,33.14,0,0,0,4.55-5.2,27.9,27.9,0,0,0,3.39-5.8,7.22,7.22,0,0,1-2.89.59,6.33,6.33,0,0,1-5-2.2,8.11,8.11,0,0,1-2-5.63,8.7,8.7,0,0,1,1-4.19,7.84,7.84,0,0,1,2.87-3A7.64,7.64,0,0,1,308.53,289.67Zm-3.38,8.27a4.17,4.17,0,0,0,1,2.84,3.33,3.33,0,0,0,5,0,4,4,0,0,0,1-2.69,4.47,4.47,0,0,0-1-3,3.18,3.18,0,0,0-2.55-1.16,3,3,0,0,0-2.45,1.11A4.38,4.38,0,0,0,305.15,297.94Z"/><path class="e" d="M326.87,289.67a7.74,7.74,0,0,1,5.71,2.1,7.59,7.59,0,0,1,2.12,5.62,12.84,12.84,0,0,1-1.58,5.79,56.78,56.78,0,0,1-5.54,8.26h8.64v4.49H319.89v-.54q2.85-3.61,4.9-6.5c1.36-1.93,2.42-3.52,3.16-4.79a18.89,18.89,0,0,0,1.59-3.24,8.1,8.1,0,0,0,.47-2.77,4.27,4.27,0,0,0-1.11-3,3.52,3.52,0,0,0-2.69-1.22c-1.9,0-3.88,1.11-5.92,3.34v-5.09A10.78,10.78,0,0,1,326.87,289.67Z"/><path class="e" d="M342.42,310.57a2.64,2.64,0,0,1,1.94.83,2.75,2.75,0,0,1,.84,2,2.79,2.79,0,0,1-.81,2,2.64,2.64,0,0,1-2,.84,2.61,2.61,0,0,1-1.95-.84,2.85,2.85,0,0,1,0-4A2.66,2.66,0,0,1,342.42,310.57Z"/><path class="e" d="M359,290v25.93H354.4V290Z"/><path class="e" d="M304.29,319.85a7.71,7.71,0,0,1,3.81,1v2.4a7.21,7.21,0,0,0-3.73-1.31,2.64,2.64,0,0,0-1.54.39,1.23,1.23,0,0,0-.56,1.06,1.81,1.81,0,0,0,1,1.45c.19.13.94.51,2.23,1.12a6.49,6.49,0,0,1,2.41,1.79,3.87,3.87,0,0,1,.73,2.38,3.64,3.64,0,0,1-1.25,2.89,4.73,4.73,0,0,1-3.25,1.11,7.41,7.41,0,0,1-2.24-.3,9.14,9.14,0,0,1-2.09-1v-2.65a6.49,6.49,0,0,0,4.09,1.85,2.58,2.58,0,0,0,1.55-.43,1.33,1.33,0,0,0,.59-1.13,1.8,1.8,0,0,0-1-1.58c-.57-.32-1.3-.7-2.2-1.15a6.44,6.44,0,0,1-2.39-1.74,3.62,3.62,0,0,1-.79-2.32,3.4,3.4,0,0,1,1.27-2.79A5.1,5.1,0,0,1,304.29,319.85Z"/><path class="e" d="M321.81,320v2.1H317V334h-2.62V322.13h-4.8V320Z"/><path class="e" d="M331.92,320v5.86h7V320h2.62V334H339v-5.89h-7V334h-2.61V320Z"/><path class="e" d="M353.3,320v2.1h-6.13v3.66H353v2.1h-5.87v4h6.27V334h-8.89V320Z"/><path class="e" d="M358.5,320v11.82h6.57V334h-9.19V320Z"/><path class="e" d="M375.61,320v2.1h-6.13v3.66h5.87v2.1h-5.87v4h6.27V334h-8.89V320Z"/><path class="e" d="M380.49,320l8,9.72V320h2.56V334h-2.25l-8.09-9.89V334h-2.56V320Z"/><path class="e" d="M398,319.85a7.71,7.71,0,0,1,3.81,1v2.4a7.24,7.24,0,0,0-3.73-1.31,2.67,2.67,0,0,0-1.55.39,1.25,1.25,0,0,0-.56,1.06,1.83,1.83,0,0,0,1,1.45c.2.13.94.51,2.24,1.12a6.52,6.52,0,0,1,2.4,1.79,3.88,3.88,0,0,1,.74,2.38,3.65,3.65,0,0,1-1.26,2.89,4.71,4.71,0,0,1-3.25,1.11,7.34,7.34,0,0,1-2.23-.3,9.39,9.39,0,0,1-2.1-1v-2.65a6.52,6.52,0,0,0,4.09,1.85,2.54,2.54,0,0,0,1.55-.43,1.31,1.31,0,0,0,.59-1.13,1.81,1.81,0,0,0-1-1.58c-.57-.32-1.31-.7-2.2-1.15a6.36,6.36,0,0,1-2.39-1.74,3.62,3.62,0,0,1-.79-2.32,3.4,3.4,0,0,1,1.27-2.79A5.07,5.07,0,0,1,398,319.85Z"/><path class="e" d="M177.35,319.28a7.72,7.72,0,0,1,3.81,1v2.39a7.31,7.31,0,0,0-3.73-1.3,2.67,2.67,0,0,0-1.55.39,1.23,1.23,0,0,0-.56,1.05,1.84,1.84,0,0,0,1,1.46c.19.13.94.5,2.24,1.12a6.31,6.31,0,0,1,2.4,1.79,3.87,3.87,0,0,1,.74,2.37,3.66,3.66,0,0,1-1.26,2.9,4.71,4.71,0,0,1-3.25,1.1,7.69,7.69,0,0,1-2.23-.29,9.63,9.63,0,0,1-2.1-1v-2.66a6.48,6.48,0,0,0,4.09,1.86,2.54,2.54,0,0,0,1.55-.43,1.34,1.34,0,0,0,.59-1.14,1.79,1.79,0,0,0-1-1.57c-.57-.32-1.31-.7-2.2-1.15a6.47,6.47,0,0,1-2.39-1.74,3.62,3.62,0,0,1-.79-2.32,3.4,3.4,0,0,1,1.27-2.79A5.07,5.07,0,0,1,177.35,319.28Z"/><path class="e" d="M194.86,319.46v2.11h-4.81v11.82h-2.61V321.57h-4.81v-2.11Z"/><path class="e" d="M204.72,319.46l4.45,5.5,4.44-5.5H216v13.93h-2.62v-9.78h-.07l-3.92,4.91H209l-3.91-4.91H205v9.78h-2.62V319.46Z"/><path class="e" d="M225.8,319.46l6,13.93H229l-1.4-3.39h-6l-1.31,3.39h-2.74l5.58-13.93Zm-3.42,8.5h4.38l-2.29-5.52Z"/><path class="e" d="M238.24,319.46a4.48,4.48,0,0,1,3.11,1.09,3.93,3.93,0,0,1,.61,4.9,4,4,0,0,1-1.77,1.39,4.09,4.09,0,0,1,1.15,1,12.61,12.61,0,0,1,1.25,2.08c.83,1.69,1.44,2.85,1.84,3.49h-2.92a15.79,15.79,0,0,1-.81-1.46,33.08,33.08,0,0,0-1.65-3,4.23,4.23,0,0,0-1-1.1,2,2,0,0,0-1.12-.32h-1v5.88h-2.62V319.46Zm-.59,6a2.33,2.33,0,0,0,1.61-.53,1.86,1.86,0,0,0,.59-1.45,1.76,1.76,0,0,0-.58-1.43,2.55,2.55,0,0,0-1.66-.47H236v3.88Z"/><path class="e" d="M246.72,319.46l3.27,4.66,3.32-4.66h3.11l-5.12,7v6.9h-2.61v-6.92l-5.15-7Z"/><path class="e" d="M261.33,319.28a7.72,7.72,0,0,1,3.81,1v2.39a7.28,7.28,0,0,0-3.73-1.3,2.69,2.69,0,0,0-1.55.39,1.22,1.22,0,0,0-.55,1.05,1.83,1.83,0,0,0,1,1.46c.2.13.94.5,2.24,1.12A6.36,6.36,0,0,1,265,327.2a3.86,3.86,0,0,1,.73,2.37,3.65,3.65,0,0,1-1.25,2.9,4.72,4.72,0,0,1-3.25,1.1,7.76,7.76,0,0,1-2.24-.29,9.85,9.85,0,0,1-2.1-1v-2.66a6.5,6.5,0,0,0,4.09,1.86,2.59,2.59,0,0,0,1.56-.43,1.36,1.36,0,0,0,.59-1.14,1.8,1.8,0,0,0-1-1.57c-.57-.32-1.3-.7-2.2-1.15a6.55,6.55,0,0,1-2.39-1.74,3.62,3.62,0,0,1-.79-2.32,3.4,3.4,0,0,1,1.27-2.79A5.09,5.09,0,0,1,261.33,319.28Z"/></svg>